M48
; DRILL file {KiCad 8.0.8} date 2026-04-08T15:11:14-0400
; FORMAT={-:-/ absolute / inch / decimal}
; #@! TF.CreationDate,2026-04-08T15:11:14-04:00
; #@! TF.GenerationSoftware,Kicad,Pcbnew,8.0.8
; #@! TF.FileFunction,Plated,1,2,PTH
FMAT,2
INCH
; #@! TA.AperFunction,Plated,PTH,ComponentDrill
T1C0.0310
; #@! TA.AperFunction,Plated,PTH,ComponentDrill
T2C0.0315
; #@! TA.AperFunction,Plated,PTH,ComponentDrill
T3C0.0335
; #@! TA.AperFunction,Plated,PTH,ComponentDrill
T4C0.0354
; #@! TA.AperFunction,Plated,PTH,ComponentDrill
T5C0.0394
%
G90
G05
T1
X4.6082Y-4.203
X4.6082Y-4.503
X4.7082Y-4.203
X4.7082Y-4.503
X4.8082Y-4.203
X4.8082Y-4.503
X4.9082Y-4.203
X4.9082Y-4.503
X5.0082Y-4.203
X5.0082Y-4.503
X5.1082Y-4.203
X5.1082Y-4.503
X5.2082Y-4.203
X5.2082Y-4.503
X5.3082Y-4.203
X5.3082Y-4.503
T2
X4.5659Y-3.5021
X4.8659Y-3.5021
X5.1145Y-3.6589
X5.4145Y-3.6589
X5.5844Y-2.9394
X5.5844Y-3.2394
X5.6844Y-2.9394
X5.6844Y-3.2394
X5.7844Y-2.9394
X5.7844Y-3.2394
X5.8844Y-2.9394
X5.8844Y-3.2394
X6.3312Y-3.3177
X6.4099Y-3.3177
T3
X4.9145Y-3.0734
X5.0145Y-3.0734
X5.1145Y-3.0734
T4
X3.1144Y-4.3166
X3.1667Y-3.4652
X3.2144Y-4.3166
X3.2667Y-3.4652
X4.0855Y-3.121
X4.0948Y-4.8851
X4.1855Y-3.121
X4.1948Y-4.8851
X4.9063Y-2.4323
X5.0063Y-2.4323
X5.6007Y-5.008
X5.7007Y-5.008
X5.7402Y-1.9303
X5.8402Y-1.9303
X6.2Y-4.6638
X6.2707Y-2.8299
X6.3Y-4.6638
X6.3567Y-3.7188
X6.3707Y-2.8299
X6.4567Y-3.7188
T5
X5.7458Y-3.6578
X5.7566Y-4.2336
X5.8566Y-4.2336
X5.9426Y-3.6578
M30
