%TF.GenerationSoftware,KiCad,Pcbnew,8.0.8*%
%TF.CreationDate,2026-04-08T15:11:11-04:00*%
%TF.ProjectId,cupsyboard,63757073-7962-46f6-9172-642e6b696361,rev?*%
%TF.SameCoordinates,Original*%
%TF.FileFunction,Soldermask,Top*%
%TF.FilePolarity,Negative*%
%FSLAX46Y46*%
G04 Gerber Fmt 4.6, Leading zero omitted, Abs format (unit mm)*
G04 Created by KiCad (PCBNEW 8.0.8) date 2026-04-08 15:11:11*
%MOMM*%
%LPD*%
G01*
G04 APERTURE LIST*
G04 Aperture macros list*
%AMRoundRect*
0 Rectangle with rounded corners*
0 $1 Rounding radius*
0 $2 $3 $4 $5 $6 $7 $8 $9 X,Y pos of 4 corners*
0 Add a 4 corners polygon primitive as box body*
4,1,4,$2,$3,$4,$5,$6,$7,$8,$9,$2,$3,0*
0 Add four circle primitives for the rounded corners*
1,1,$1+$1,$2,$3*
1,1,$1+$1,$4,$5*
1,1,$1+$1,$6,$7*
1,1,$1+$1,$8,$9*
0 Add four rect primitives between the rounded corners*
20,1,$1+$1,$2,$3,$4,$5,0*
20,1,$1+$1,$4,$5,$6,$7,0*
20,1,$1+$1,$6,$7,$8,$9,0*
20,1,$1+$1,$8,$9,$2,$3,0*%
G04 Aperture macros list end*
%ADD10C,1.295400*%
%ADD11R,1.295400X1.295400*%
%ADD12R,1.600000X1.600000*%
%ADD13O,1.600000X1.600000*%
%ADD14RoundRect,0.412500X-0.412500X-0.412500X0.412500X-0.412500X0.412500X0.412500X-0.412500X0.412500X0*%
%ADD15C,1.650000*%
%ADD16C,1.600000*%
%ADD17R,1.700000X1.700000*%
%ADD18O,1.700000X1.700000*%
%ADD19R,1.800000X1.800000*%
%ADD20C,1.800000*%
%ADD21C,2.000000*%
G04 APERTURE END LIST*
D10*
%TO.C,U2*%
X117048164Y-106755942D03*
X119588164Y-106755942D03*
X122128164Y-106755942D03*
X124668164Y-106755942D03*
X127208164Y-106755942D03*
X129748164Y-106755942D03*
X132288164Y-106755942D03*
X134828164Y-106755942D03*
X134828164Y-114375942D03*
X132288164Y-114375942D03*
X129748164Y-114375942D03*
X127208164Y-114375942D03*
X124668164Y-114375942D03*
X122128164Y-114375942D03*
X119588164Y-114375942D03*
D11*
X117048164Y-114375942D03*
%TD*%
D12*
%TO.C,U1*%
X141843523Y-82279675D03*
D13*
X144383523Y-82279675D03*
X146923523Y-82279675D03*
X149463523Y-82279675D03*
X149463523Y-74659675D03*
X146923523Y-74659675D03*
X144383523Y-74659675D03*
X141843523Y-74659675D03*
%TD*%
D14*
%TO.C,RV2*%
X124829013Y-78064331D03*
D15*
X127369013Y-78064331D03*
X129909013Y-78064331D03*
%TD*%
D16*
%TO.C,R3*%
X115974961Y-88953969D03*
D13*
X123594961Y-88953969D03*
%TD*%
D16*
%TO.C,R2*%
X129909013Y-92935127D03*
D13*
X137529013Y-92935127D03*
%TD*%
D17*
%TO.C,J2*%
X146217110Y-107532705D03*
D18*
X148757110Y-107532705D03*
%TD*%
D19*
%TO.C,D11*%
X157480191Y-118461374D03*
D20*
X160020191Y-118461374D03*
%TD*%
D19*
%TO.C,D10*%
X79106025Y-109640377D03*
D20*
X81646025Y-109640377D03*
%TD*%
D19*
%TO.C,D9*%
X80433078Y-88017226D03*
D20*
X82973078Y-88017226D03*
%TD*%
D19*
%TO.C,D8*%
X161461348Y-94457334D03*
D20*
X164001348Y-94457334D03*
%TD*%
D19*
%TO.C,D7*%
X124619979Y-61780709D03*
D20*
X127159979Y-61780709D03*
%TD*%
D19*
%TO.C,D6*%
X142258117Y-127204309D03*
D20*
X144798117Y-127204309D03*
%TD*%
D19*
%TO.C,D5*%
X104007777Y-124081832D03*
D20*
X106547777Y-124081832D03*
%TD*%
D19*
%TO.C,D4*%
X103770469Y-79274291D03*
D20*
X106310469Y-79274291D03*
%TD*%
D19*
%TO.C,D3*%
X159275615Y-71880573D03*
D20*
X161815615Y-71880573D03*
%TD*%
D19*
%TO.C,D2*%
X145800780Y-49030596D03*
D20*
X148340780Y-49030596D03*
%TD*%
D12*
%TO.C,C4*%
X160812111Y-84270254D03*
D16*
X162812111Y-84270254D03*
%TD*%
D21*
%TO.C,C3*%
X145942844Y-92909106D03*
X150942844Y-92909106D03*
%TD*%
M02*
