%TF.GenerationSoftware,KiCad,Pcbnew,8.0.8*%
%TF.CreationDate,2026-04-08T15:11:11-04:00*%
%TF.ProjectId,cupsyboard,63757073-7962-46f6-9172-642e6b696361,rev?*%
%TF.SameCoordinates,Original*%
%TF.FileFunction,Copper,L1,Top*%
%TF.FilePolarity,Positive*%
%FSLAX46Y46*%
G04 Gerber Fmt 4.6, Leading zero omitted, Abs format (unit mm)*
G04 Created by KiCad (PCBNEW 8.0.8) date 2026-04-08 15:11:11*
%MOMM*%
%LPD*%
G01*
G04 APERTURE LIST*
G04 Aperture macros list*
%AMRoundRect*
0 Rectangle with rounded corners*
0 $1 Rounding radius*
0 $2 $3 $4 $5 $6 $7 $8 $9 X,Y pos of 4 corners*
0 Add a 4 corners polygon primitive as box body*
4,1,4,$2,$3,$4,$5,$6,$7,$8,$9,$2,$3,0*
0 Add four circle primitives for the rounded corners*
1,1,$1+$1,$2,$3*
1,1,$1+$1,$4,$5*
1,1,$1+$1,$6,$7*
1,1,$1+$1,$8,$9*
0 Add four rect primitives between the rounded corners*
20,1,$1+$1,$2,$3,$4,$5,0*
20,1,$1+$1,$4,$5,$6,$7,0*
20,1,$1+$1,$6,$7,$8,$9,0*
20,1,$1+$1,$8,$9,$2,$3,0*%
G04 Aperture macros list end*
%TA.AperFunction,ComponentPad*%
%ADD10C,1.295400*%
%TD*%
%TA.AperFunction,ComponentPad*%
%ADD11R,1.295400X1.295400*%
%TD*%
%TA.AperFunction,ComponentPad*%
%ADD12R,1.600000X1.600000*%
%TD*%
%TA.AperFunction,ComponentPad*%
%ADD13O,1.600000X1.600000*%
%TD*%
%TA.AperFunction,ComponentPad*%
%ADD14RoundRect,0.412500X-0.412500X-0.412500X0.412500X-0.412500X0.412500X0.412500X-0.412500X0.412500X0*%
%TD*%
%TA.AperFunction,ComponentPad*%
%ADD15C,1.650000*%
%TD*%
%TA.AperFunction,ComponentPad*%
%ADD16C,1.600000*%
%TD*%
%TA.AperFunction,ComponentPad*%
%ADD17R,1.700000X1.700000*%
%TD*%
%TA.AperFunction,ComponentPad*%
%ADD18O,1.700000X1.700000*%
%TD*%
%TA.AperFunction,ComponentPad*%
%ADD19R,1.800000X1.800000*%
%TD*%
%TA.AperFunction,ComponentPad*%
%ADD20C,1.800000*%
%TD*%
%TA.AperFunction,ComponentPad*%
%ADD21C,2.000000*%
%TD*%
%TA.AperFunction,Conductor*%
%ADD22C,0.200000*%
%TD*%
G04 APERTURE END LIST*
D10*
%TO.P,U2,16,VDD*%
%TO.N,unconnected-(U2-VDD-Pad16)*%
X117048164Y-106755942D03*
%TO.P,U2,15,Reset*%
%TO.N,GND*%
X119588164Y-106755942D03*
%TO.P,U2,14,CLK*%
%TO.N,OUT*%
X122128164Y-106755942D03*
%TO.P,U2,13,CKEN*%
%TO.N,GND*%
X124668164Y-106755942D03*
%TO.P,U2,12,Cout*%
%TO.N,unconnected-(U2-Cout-Pad12)*%
X127208164Y-106755942D03*
%TO.P,U2,11,Q9*%
%TO.N,Net-(D11-A)*%
X129748164Y-106755942D03*
%TO.P,U2,10,Q4*%
%TO.N,Net-(D6-A)*%
X132288164Y-106755942D03*
%TO.P,U2,9,Q8*%
%TO.N,Net-(D10-A)*%
X134828164Y-106755942D03*
%TO.P,U2,8,VSS*%
%TO.N,GND*%
X134828164Y-114375942D03*
%TO.P,U2,7,Q3*%
%TO.N,Net-(D5-A)*%
X132288164Y-114375942D03*
%TO.P,U2,6,Q7*%
%TO.N,Net-(D9-A)*%
X129748164Y-114375942D03*
%TO.P,U2,5,Q6*%
%TO.N,Net-(D8-A)*%
X127208164Y-114375942D03*
%TO.P,U2,4,Q2*%
%TO.N,Net-(D4-A)*%
X124668164Y-114375942D03*
%TO.P,U2,3,Q0*%
%TO.N,Net-(D2-A)*%
X122128164Y-114375942D03*
%TO.P,U2,2,Q1*%
%TO.N,Net-(D3-A)*%
X119588164Y-114375942D03*
D11*
%TO.P,U2,1,Q5*%
%TO.N,Net-(D7-A)*%
X117048164Y-114375942D03*
%TD*%
D12*
%TO.P,U1,1,GND*%
%TO.N,GND*%
X141843523Y-82279675D03*
D13*
%TO.P,U1,2,TR*%
%TO.N,TR*%
X144383523Y-82279675D03*
%TO.P,U1,3,Q*%
%TO.N,OUT*%
X146923523Y-82279675D03*
%TO.P,U1,4,R*%
%TO.N,unconnected-(U1-R-Pad4)*%
X149463523Y-82279675D03*
%TO.P,U1,5,CV*%
%TO.N,Net-(U1-CV)*%
X149463523Y-74659675D03*
%TO.P,U1,6,THR*%
%TO.N,Net-(U1-THR)*%
X146923523Y-74659675D03*
%TO.P,U1,7,DIS*%
%TO.N,Net-(U1-DIS)*%
X144383523Y-74659675D03*
%TO.P,U1,8,VCC*%
%TO.N,unconnected-(U1-VCC-Pad8)*%
X141843523Y-74659675D03*
%TD*%
D14*
%TO.P,RV2,1,1*%
%TO.N,Net-(U1-DIS)*%
X124829013Y-78064331D03*
D15*
%TO.P,RV2,2,2*%
X127369013Y-78064331D03*
%TO.P,RV2,3,3*%
%TO.N,Net-(U1-THR)*%
X129909013Y-78064331D03*
%TD*%
D16*
%TO.P,R3,1*%
%TO.N,Net-(D10-K)*%
X115974961Y-88953969D03*
D13*
%TO.P,R3,2*%
%TO.N,GND*%
X123594961Y-88953969D03*
%TD*%
D16*
%TO.P,R2,1*%
%TO.N,+5V*%
X129909013Y-92935127D03*
D13*
%TO.P,R2,2*%
%TO.N,Net-(U1-DIS)*%
X137529013Y-92935127D03*
%TD*%
D17*
%TO.P,J2,1,Pin_1*%
%TO.N,+5V*%
X146217110Y-107532705D03*
D18*
%TO.P,J2,2,Pin_2*%
%TO.N,GND*%
X148757110Y-107532705D03*
%TD*%
D19*
%TO.P,D11,1,K*%
%TO.N,Net-(D10-K)*%
X157480191Y-118461374D03*
D20*
%TO.P,D11,2,A*%
%TO.N,Net-(D11-A)*%
X160020191Y-118461374D03*
%TD*%
D19*
%TO.P,D10,1,K*%
%TO.N,Net-(D10-K)*%
X79106025Y-109640377D03*
D20*
%TO.P,D10,2,A*%
%TO.N,Net-(D10-A)*%
X81646025Y-109640377D03*
%TD*%
D19*
%TO.P,D9,1,K*%
%TO.N,Net-(D10-K)*%
X80433078Y-88017226D03*
D20*
%TO.P,D9,2,A*%
%TO.N,Net-(D9-A)*%
X82973078Y-88017226D03*
%TD*%
D19*
%TO.P,D8,1,K*%
%TO.N,Net-(D10-K)*%
X161461348Y-94457334D03*
D20*
%TO.P,D8,2,A*%
%TO.N,Net-(D8-A)*%
X164001348Y-94457334D03*
%TD*%
D19*
%TO.P,D7,1,K*%
%TO.N,Net-(D10-K)*%
X124619979Y-61780709D03*
D20*
%TO.P,D7,2,A*%
%TO.N,Net-(D7-A)*%
X127159979Y-61780709D03*
%TD*%
D19*
%TO.P,D6,1,K*%
%TO.N,Net-(D10-K)*%
X142258117Y-127204309D03*
D20*
%TO.P,D6,2,A*%
%TO.N,Net-(D6-A)*%
X144798117Y-127204309D03*
%TD*%
D19*
%TO.P,D5,1,K*%
%TO.N,Net-(D10-K)*%
X104007777Y-124081832D03*
D20*
%TO.P,D5,2,A*%
%TO.N,Net-(D5-A)*%
X106547777Y-124081832D03*
%TD*%
D19*
%TO.P,D4,1,K*%
%TO.N,Net-(D10-K)*%
X103770469Y-79274291D03*
D20*
%TO.P,D4,2,A*%
%TO.N,Net-(D4-A)*%
X106310469Y-79274291D03*
%TD*%
D19*
%TO.P,D3,1,K*%
%TO.N,Net-(D10-K)*%
X159275615Y-71880573D03*
D20*
%TO.P,D3,2,A*%
%TO.N,Net-(D3-A)*%
X161815615Y-71880573D03*
%TD*%
D19*
%TO.P,D2,1,K*%
%TO.N,Net-(D10-K)*%
X145800780Y-49030596D03*
D20*
%TO.P,D2,2,A*%
%TO.N,Net-(D2-A)*%
X148340780Y-49030596D03*
%TD*%
D12*
%TO.P,C4,1*%
%TO.N,GND*%
X160812111Y-84270254D03*
D16*
%TO.P,C4,2*%
%TO.N,Net-(U1-CV)*%
X162812111Y-84270254D03*
%TD*%
D21*
%TO.P,C3,1*%
%TO.N,TR*%
X145942844Y-92909106D03*
%TO.P,C3,2*%
%TO.N,GND*%
X150942844Y-92909106D03*
%TD*%
D22*
%TO.N,Net-(D10-K)*%
X106387797Y-86039657D02*
X103770469Y-83422329D01*
X103770469Y-83422329D02*
X103770469Y-79274291D01*
X106387797Y-87600895D02*
X106387797Y-86039657D01*
X111749977Y-92963075D02*
X106387797Y-87600895D01*
X160596501Y-59699058D02*
X159275615Y-61019944D01*
X160596501Y-58996501D02*
X160596501Y-59699058D01*
X156771467Y-55171467D02*
X160596501Y-58996501D01*
X156771467Y-51138174D02*
X156771467Y-55171467D01*
X153318526Y-47685233D02*
X156771467Y-51138174D01*
X159275615Y-61019944D02*
X159275615Y-71880573D01*
X147146143Y-47685233D02*
X153318526Y-47685233D01*
X145800780Y-49030596D02*
X147146143Y-47685233D01*
X145998117Y-127665777D02*
X155202520Y-118461374D01*
X145998117Y-127701366D02*
X145998117Y-127665777D01*
X155202520Y-118461374D02*
X157480191Y-118461374D01*
X143794470Y-129905013D02*
X145998117Y-127701366D01*
X141424731Y-129905013D02*
X143794470Y-129905013D01*
X142258117Y-129071627D02*
X141424731Y-129905013D01*
X142258117Y-127204309D02*
X142258117Y-129071627D01*
X115974961Y-88953969D02*
X111965855Y-92963075D01*
X111965855Y-92963075D02*
X111749977Y-92963075D01*
X112060296Y-93273394D02*
X111749977Y-92963075D01*
%TO.N,GND*%
X137984648Y-94035127D02*
X141843523Y-90176252D01*
X137073378Y-94035127D02*
X137984648Y-94035127D01*
X131992220Y-88953969D02*
X137073378Y-94035127D01*
X141843523Y-90176252D02*
X141843523Y-82279675D01*
X123594961Y-88953969D02*
X131992220Y-88953969D01*
%TO.N,Net-(U1-DIS)*%
X143329396Y-71389072D02*
X144383523Y-72443199D01*
X132134739Y-71389072D02*
X143329396Y-71389072D01*
X131972833Y-71227166D02*
X132134739Y-71389072D01*
X131070784Y-71227166D02*
X131972833Y-71227166D01*
X127369013Y-74928937D02*
X131070784Y-71227166D01*
X127369013Y-78064331D02*
X127369013Y-74928937D01*
X144383523Y-72443199D02*
X144383523Y-74659675D01*
X127369013Y-78064331D02*
X124829013Y-78064331D01*
X137529013Y-88224331D02*
X127369013Y-78064331D01*
X137529013Y-92935127D02*
X137529013Y-88224331D01*
%TO.N,+5V*%
X144506591Y-107532705D02*
X129909013Y-92935127D01*
X146217110Y-107532705D02*
X144506591Y-107532705D01*
%TO.N,TR*%
X145653390Y-81009808D02*
X144383523Y-82279675D01*
X149785253Y-81009808D02*
X145653390Y-81009808D01*
X150563523Y-81788078D02*
X149785253Y-81009808D01*
X150542844Y-83069448D02*
X150563523Y-83048769D01*
X150563523Y-83048769D02*
X150563523Y-81788078D01*
%TO.N,GND*%
X144854013Y-80519426D02*
X143603772Y-80519426D01*
X153701031Y-82184746D02*
X148444862Y-76928577D01*
X153701031Y-83537820D02*
X153701031Y-82184746D01*
X143603772Y-80519426D02*
X141843523Y-82279675D01*
X150942844Y-92909106D02*
X150942844Y-86296007D01*
X150942844Y-86296007D02*
X153701031Y-83537820D01*
X148444862Y-76928577D02*
X144854013Y-80519426D01*
%TO.N,TR*%
X150229385Y-83069448D02*
X150542844Y-83069448D01*
X145942844Y-87355989D02*
X150229385Y-83069448D01*
X145942844Y-92909106D02*
X145942844Y-87355989D01*
%TO.N,GND*%
X159581696Y-84270254D02*
X150942844Y-92909106D01*
X160812111Y-84270254D02*
X159581696Y-84270254D01*
%TO.N,Net-(U1-CV)*%
X154332902Y-74659675D02*
X149463523Y-74659675D01*
X162812111Y-84270254D02*
X162812111Y-83138884D01*
X162812111Y-83138884D02*
X154332902Y-74659675D01*
%TO.N,Net-(D2-A)*%
X85911551Y-115602960D02*
X120901146Y-115602960D01*
X80446025Y-110137434D02*
X85911551Y-115602960D01*
X80446025Y-109143320D02*
X80446025Y-110137434D01*
X156844845Y-116861103D02*
X148343164Y-116861103D01*
X157703526Y-115013338D02*
X157703526Y-116002422D01*
X133794308Y-102312247D02*
X87277098Y-102312247D01*
X87277098Y-102312247D02*
X80446025Y-109143320D01*
X120901146Y-115602960D02*
X122128164Y-114375942D01*
X156793794Y-114103606D02*
X157703526Y-115013338D01*
X162095662Y-93257334D02*
X160261348Y-93257334D01*
X166129207Y-89223789D02*
X162095662Y-93257334D01*
X148343164Y-116861103D02*
X133794308Y-102312247D01*
X166129207Y-87755078D02*
X166129207Y-89223789D01*
X164698283Y-82731799D02*
X166129207Y-87755078D01*
X156793794Y-96724888D02*
X156793794Y-114103606D01*
X158875615Y-76909131D02*
X164698283Y-82731799D01*
X148398454Y-72038971D02*
X150563523Y-74204040D01*
X160261348Y-93257334D02*
X156793794Y-96724888D01*
X145823523Y-72038971D02*
X148398454Y-72038971D01*
X150563523Y-74204040D02*
X157117365Y-74204040D01*
X145823523Y-51547853D02*
X145823523Y-72038971D01*
X148340780Y-49030596D02*
X145823523Y-51547853D01*
X157117365Y-74204040D02*
X158875615Y-75962290D01*
X157703526Y-116002422D02*
X156844845Y-116861103D01*
X158875615Y-75962290D02*
X158875615Y-76909131D01*
%TO.N,Net-(D10-K)*%
X165054536Y-82522366D02*
X159275615Y-76743445D01*
X166529207Y-87699219D02*
X165054536Y-82522366D01*
X167897598Y-90834301D02*
X166529207Y-89465910D01*
X166529207Y-89465910D02*
X166529207Y-87699219D01*
X164343473Y-91575209D02*
X167156690Y-91575209D01*
X159275615Y-76743445D02*
X159275615Y-71880573D01*
X161461348Y-94457334D02*
X164343473Y-91575209D01*
X167156690Y-91575209D02*
X167897598Y-90834301D01*
%TO.N,GND*%
X148757110Y-107532705D02*
X150942844Y-105346971D01*
X150942844Y-105346971D02*
X150942844Y-92909106D01*
%TO.N,Net-(D10-K)*%
X112060296Y-101912247D02*
X112060296Y-93273394D01*
X108677613Y-101912247D02*
X112060296Y-101912247D01*
X101235711Y-94470345D02*
X108677613Y-101912247D01*
X101235711Y-93689725D02*
X101235711Y-94470345D01*
X95094840Y-93689725D02*
X101235711Y-93689725D01*
X87236607Y-85831492D02*
X95094840Y-93689725D01*
X82618812Y-85831492D02*
X87236607Y-85831492D01*
X80433078Y-88017226D02*
X82618812Y-85831492D01*
X103770469Y-73825221D02*
X103770469Y-79274291D01*
X115814981Y-61780709D02*
X103770469Y-73825221D01*
X124619979Y-61780709D02*
X115814981Y-61780709D01*
X137370092Y-49030596D02*
X124619979Y-61780709D01*
X145800780Y-49030596D02*
X137370092Y-49030596D01*
X161220191Y-117964317D02*
X161220191Y-118958431D01*
X157193794Y-113937920D02*
X161220191Y-117964317D01*
X161220191Y-118958431D02*
X160517248Y-119661374D01*
X160517248Y-119661374D02*
X158680191Y-119661374D01*
X157193794Y-98724888D02*
X157193794Y-113937920D01*
X161461348Y-94457334D02*
X157193794Y-98724888D01*
X158680191Y-119661374D02*
X157480191Y-118461374D01*
%TO.N,Net-(D11-A)*%
X131397155Y-105106951D02*
X129748164Y-106755942D01*
X136023326Y-105106951D02*
X131397155Y-105106951D01*
X158820191Y-117261374D02*
X148177749Y-117261374D01*
X160020191Y-118461374D02*
X158820191Y-117261374D01*
X148177749Y-117261374D02*
X136023326Y-105106951D01*
%TO.N,Net-(D6-A)*%
X133537155Y-105506951D02*
X132288164Y-106755942D01*
X144798117Y-115385644D02*
X134919424Y-105506951D01*
X134919424Y-105506951D02*
X133537155Y-105506951D01*
X144798117Y-127204309D02*
X144798117Y-115385644D01*
%TO.N,Net-(D10-A)*%
X83582760Y-107703642D02*
X81646025Y-109640377D01*
X133880464Y-107703642D02*
X83582760Y-107703642D01*
X134828164Y-106755942D02*
X133880464Y-107703642D01*
%TO.N,Net-(D5-A)*%
X132288164Y-116299542D02*
X132288164Y-114375942D01*
X130981158Y-117606548D02*
X132288164Y-116299542D01*
X124359774Y-117606548D02*
X130981158Y-117606548D01*
X117884490Y-124081832D02*
X124359774Y-117606548D01*
X106547777Y-124081832D02*
X117884490Y-124081832D01*
%TO.N,Net-(D10-K)*%
X92447480Y-124081832D02*
X104007777Y-124081832D01*
X79106025Y-110740377D02*
X92447480Y-124081832D01*
X79106025Y-109640377D02*
X79106025Y-110740377D01*
X80433078Y-108313324D02*
X79106025Y-109640377D01*
X80433078Y-88017226D02*
X80433078Y-108313324D01*
%TD*%
M02*
