%TF.GenerationSoftware,KiCad,Pcbnew,8.0.8*%
%TF.CreationDate,2026-04-08T15:11:11-04:00*%
%TF.ProjectId,cupsyboard,63757073-7962-46f6-9172-642e6b696361,rev?*%
%TF.SameCoordinates,Original*%
%TF.FileFunction,Legend,Top*%
%TF.FilePolarity,Positive*%
%FSLAX46Y46*%
G04 Gerber Fmt 4.6, Leading zero omitted, Abs format (unit mm)*
G04 Created by KiCad (PCBNEW 8.0.8) date 2026-04-08 15:11:11*
%MOMM*%
%LPD*%
G01*
G04 APERTURE LIST*
%ADD10C,0.100000*%
%ADD11C,0.150000*%
%ADD12C,0.152400*%
%ADD13C,0.120000*%
G04 APERTURE END LIST*
D10*
X148860078Y-63071535D02*
G75*
G02*
X157448004Y-63602155I4397381J1408479D01*
G01*
X140983657Y-67638579D02*
G75*
G02*
X150665291Y-69087692I4970676J143043D01*
G01*
X133219870Y-72054301D02*
G75*
G02*
X143433297Y-72842480I5142189J65612D01*
G01*
X124363242Y-76963272D02*
G75*
G02*
X135248220Y-77036677I5448414J841894D01*
G01*
X116175415Y-81681681D02*
G75*
G02*
X125094067Y-82301113I4579632J1422461D01*
G01*
X107640644Y-88065411D02*
G75*
G02*
X116879194Y-85216711I3903096J3746972D01*
G01*
X131943921Y-38570299D02*
X132204127Y-42161147D01*
X132932705Y-35864153D02*
X131943921Y-38570299D01*
X134389861Y-34302914D02*
X132932705Y-35864153D01*
X136523553Y-33210047D02*
X134389861Y-34302914D01*
X139854195Y-34771286D02*
X136523553Y-33210047D01*
X140999103Y-37061102D02*
X139854195Y-34771286D01*
X141311351Y-40547868D02*
X140999103Y-37061102D01*
X139541948Y-40547868D02*
X141311351Y-40547868D01*
X136731719Y-40964198D02*
X139541948Y-40547868D01*
X132204127Y-42161147D02*
X136731719Y-40964198D01*
X116691970Y-45804037D02*
X118097085Y-47833647D01*
X114870526Y-44711170D02*
X116691970Y-45804037D01*
X111071512Y-43254014D02*
X114870526Y-44711170D01*
X108001077Y-49551009D02*
X111071512Y-43254014D01*
X108105159Y-51632660D02*
X108001077Y-49551009D01*
X108677613Y-52569403D02*
X108105159Y-51632660D01*
X109822521Y-54807178D02*
X108677613Y-52569403D01*
X109822521Y-54807178D02*
X118097085Y-47833647D01*
X120686138Y-84045222D02*
X106023509Y-88797845D01*
X149608079Y-69994077D02*
X120686138Y-84045222D01*
X162839574Y-59338625D02*
X149608079Y-69994077D01*
X152139792Y-45387707D02*
G75*
G02*
X149073874Y-43118478I-5069012J-3642889D01*
G01*
X134081795Y-61780709D02*
G75*
G02*
X117698163Y-61780709I-8191816J0D01*
G01*
X117698163Y-61780709D02*
G75*
G02*
X134081795Y-61780709I8191816J0D01*
G01*
D11*
X125392983Y-111327846D02*
X126202506Y-111327846D01*
X126202506Y-111327846D02*
X126297744Y-111280227D01*
X126297744Y-111280227D02*
X126345364Y-111232608D01*
X126345364Y-111232608D02*
X126392983Y-111137370D01*
X126392983Y-111137370D02*
X126392983Y-110946894D01*
X126392983Y-110946894D02*
X126345364Y-110851656D01*
X126345364Y-110851656D02*
X126297744Y-110804037D01*
X126297744Y-110804037D02*
X126202506Y-110756418D01*
X126202506Y-110756418D02*
X125392983Y-110756418D01*
X125488221Y-110327846D02*
X125440602Y-110280227D01*
X125440602Y-110280227D02*
X125392983Y-110184989D01*
X125392983Y-110184989D02*
X125392983Y-109946894D01*
X125392983Y-109946894D02*
X125440602Y-109851656D01*
X125440602Y-109851656D02*
X125488221Y-109804037D01*
X125488221Y-109804037D02*
X125583459Y-109756418D01*
X125583459Y-109756418D02*
X125678697Y-109756418D01*
X125678697Y-109756418D02*
X125821554Y-109804037D01*
X125821554Y-109804037D02*
X126392983Y-110375465D01*
X126392983Y-110375465D02*
X126392983Y-109756418D01*
X115093283Y-114375941D02*
X115331378Y-114375941D01*
X115236140Y-114614036D02*
X115331378Y-114375941D01*
X115331378Y-114375941D02*
X115236140Y-114137846D01*
X115521854Y-114518798D02*
X115331378Y-114375941D01*
X115331378Y-114375941D02*
X115521854Y-114233084D01*
X115093283Y-114375941D02*
X115331378Y-114375941D01*
X115236140Y-114614036D02*
X115331378Y-114375941D01*
X115331378Y-114375941D02*
X115236140Y-114137846D01*
X115521854Y-114518798D02*
X115331378Y-114375941D01*
X115331378Y-114375941D02*
X115521854Y-114233084D01*
X138968342Y-79231579D02*
X139777865Y-79231579D01*
X139777865Y-79231579D02*
X139873103Y-79183960D01*
X139873103Y-79183960D02*
X139920723Y-79136341D01*
X139920723Y-79136341D02*
X139968342Y-79041103D01*
X139968342Y-79041103D02*
X139968342Y-78850627D01*
X139968342Y-78850627D02*
X139920723Y-78755389D01*
X139920723Y-78755389D02*
X139873103Y-78707770D01*
X139873103Y-78707770D02*
X139777865Y-78660151D01*
X139777865Y-78660151D02*
X138968342Y-78660151D01*
X139968342Y-77660151D02*
X139968342Y-78231579D01*
X139968342Y-77945865D02*
X138968342Y-77945865D01*
X138968342Y-77945865D02*
X139111199Y-78041103D01*
X139111199Y-78041103D02*
X139206437Y-78136341D01*
X139206437Y-78136341D02*
X139254056Y-78231579D01*
X133967544Y-66806777D02*
X133634211Y-66330586D01*
X133396116Y-66806777D02*
X133396116Y-65806777D01*
X133396116Y-65806777D02*
X133777068Y-65806777D01*
X133777068Y-65806777D02*
X133872306Y-65854396D01*
X133872306Y-65854396D02*
X133919925Y-65902015D01*
X133919925Y-65902015D02*
X133967544Y-65997253D01*
X133967544Y-65997253D02*
X133967544Y-66140110D01*
X133967544Y-66140110D02*
X133919925Y-66235348D01*
X133919925Y-66235348D02*
X133872306Y-66282967D01*
X133872306Y-66282967D02*
X133777068Y-66330586D01*
X133777068Y-66330586D02*
X133396116Y-66330586D01*
X134253259Y-65806777D02*
X134586592Y-66806777D01*
X134586592Y-66806777D02*
X134919925Y-65806777D01*
X135205640Y-65902015D02*
X135253259Y-65854396D01*
X135253259Y-65854396D02*
X135348497Y-65806777D01*
X135348497Y-65806777D02*
X135586592Y-65806777D01*
X135586592Y-65806777D02*
X135681830Y-65854396D01*
X135681830Y-65854396D02*
X135729449Y-65902015D01*
X135729449Y-65902015D02*
X135777068Y-65997253D01*
X135777068Y-65997253D02*
X135777068Y-66092491D01*
X135777068Y-66092491D02*
X135729449Y-66235348D01*
X135729449Y-66235348D02*
X135158021Y-66806777D01*
X135158021Y-66806777D02*
X135777068Y-66806777D01*
X119618294Y-87038788D02*
X119284961Y-86562597D01*
X119046866Y-87038788D02*
X119046866Y-86038788D01*
X119046866Y-86038788D02*
X119427818Y-86038788D01*
X119427818Y-86038788D02*
X119523056Y-86086407D01*
X119523056Y-86086407D02*
X119570675Y-86134026D01*
X119570675Y-86134026D02*
X119618294Y-86229264D01*
X119618294Y-86229264D02*
X119618294Y-86372121D01*
X119618294Y-86372121D02*
X119570675Y-86467359D01*
X119570675Y-86467359D02*
X119523056Y-86514978D01*
X119523056Y-86514978D02*
X119427818Y-86562597D01*
X119427818Y-86562597D02*
X119046866Y-86562597D01*
X119951628Y-86038788D02*
X120570675Y-86038788D01*
X120570675Y-86038788D02*
X120237342Y-86419740D01*
X120237342Y-86419740D02*
X120380199Y-86419740D01*
X120380199Y-86419740D02*
X120475437Y-86467359D01*
X120475437Y-86467359D02*
X120523056Y-86514978D01*
X120523056Y-86514978D02*
X120570675Y-86610216D01*
X120570675Y-86610216D02*
X120570675Y-86848311D01*
X120570675Y-86848311D02*
X120523056Y-86943549D01*
X120523056Y-86943549D02*
X120475437Y-86991169D01*
X120475437Y-86991169D02*
X120380199Y-87038788D01*
X120380199Y-87038788D02*
X120094485Y-87038788D01*
X120094485Y-87038788D02*
X119999247Y-86991169D01*
X119999247Y-86991169D02*
X119951628Y-86943549D01*
X133552346Y-91019946D02*
X133219013Y-90543755D01*
X132980918Y-91019946D02*
X132980918Y-90019946D01*
X132980918Y-90019946D02*
X133361870Y-90019946D01*
X133361870Y-90019946D02*
X133457108Y-90067565D01*
X133457108Y-90067565D02*
X133504727Y-90115184D01*
X133504727Y-90115184D02*
X133552346Y-90210422D01*
X133552346Y-90210422D02*
X133552346Y-90353279D01*
X133552346Y-90353279D02*
X133504727Y-90448517D01*
X133504727Y-90448517D02*
X133457108Y-90496136D01*
X133457108Y-90496136D02*
X133361870Y-90543755D01*
X133361870Y-90543755D02*
X132980918Y-90543755D01*
X133933299Y-90115184D02*
X133980918Y-90067565D01*
X133980918Y-90067565D02*
X134076156Y-90019946D01*
X134076156Y-90019946D02*
X134314251Y-90019946D01*
X134314251Y-90019946D02*
X134409489Y-90067565D01*
X134409489Y-90067565D02*
X134457108Y-90115184D01*
X134457108Y-90115184D02*
X134504727Y-90210422D01*
X134504727Y-90210422D02*
X134504727Y-90305660D01*
X134504727Y-90305660D02*
X134457108Y-90448517D01*
X134457108Y-90448517D02*
X133885680Y-91019946D01*
X133885680Y-91019946D02*
X134504727Y-91019946D01*
X143341929Y-107866038D02*
X144056214Y-107866038D01*
X144056214Y-107866038D02*
X144199071Y-107913657D01*
X144199071Y-107913657D02*
X144294310Y-108008895D01*
X144294310Y-108008895D02*
X144341929Y-108151752D01*
X144341929Y-108151752D02*
X144341929Y-108246990D01*
X143437167Y-107437466D02*
X143389548Y-107389847D01*
X143389548Y-107389847D02*
X143341929Y-107294609D01*
X143341929Y-107294609D02*
X143341929Y-107056514D01*
X143341929Y-107056514D02*
X143389548Y-106961276D01*
X143389548Y-106961276D02*
X143437167Y-106913657D01*
X143437167Y-106913657D02*
X143532405Y-106866038D01*
X143532405Y-106866038D02*
X143627643Y-106866038D01*
X143627643Y-106866038D02*
X143770500Y-106913657D01*
X143770500Y-106913657D02*
X144341929Y-107485085D01*
X144341929Y-107485085D02*
X144341929Y-106866038D01*
X157535905Y-115956193D02*
X157535905Y-114956193D01*
X157535905Y-114956193D02*
X157774000Y-114956193D01*
X157774000Y-114956193D02*
X157916857Y-115003812D01*
X157916857Y-115003812D02*
X158012095Y-115099050D01*
X158012095Y-115099050D02*
X158059714Y-115194288D01*
X158059714Y-115194288D02*
X158107333Y-115384764D01*
X158107333Y-115384764D02*
X158107333Y-115527621D01*
X158107333Y-115527621D02*
X158059714Y-115718097D01*
X158059714Y-115718097D02*
X158012095Y-115813335D01*
X158012095Y-115813335D02*
X157916857Y-115908574D01*
X157916857Y-115908574D02*
X157774000Y-115956193D01*
X157774000Y-115956193D02*
X157535905Y-115956193D01*
X159059714Y-115956193D02*
X158488286Y-115956193D01*
X158774000Y-115956193D02*
X158774000Y-114956193D01*
X158774000Y-114956193D02*
X158678762Y-115099050D01*
X158678762Y-115099050D02*
X158583524Y-115194288D01*
X158583524Y-115194288D02*
X158488286Y-115241907D01*
X160012095Y-115956193D02*
X159440667Y-115956193D01*
X159726381Y-115956193D02*
X159726381Y-114956193D01*
X159726381Y-114956193D02*
X159631143Y-115099050D01*
X159631143Y-115099050D02*
X159535905Y-115194288D01*
X159535905Y-115194288D02*
X159440667Y-115241907D01*
X79161739Y-107135196D02*
X79161739Y-106135196D01*
X79161739Y-106135196D02*
X79399834Y-106135196D01*
X79399834Y-106135196D02*
X79542691Y-106182815D01*
X79542691Y-106182815D02*
X79637929Y-106278053D01*
X79637929Y-106278053D02*
X79685548Y-106373291D01*
X79685548Y-106373291D02*
X79733167Y-106563767D01*
X79733167Y-106563767D02*
X79733167Y-106706624D01*
X79733167Y-106706624D02*
X79685548Y-106897100D01*
X79685548Y-106897100D02*
X79637929Y-106992338D01*
X79637929Y-106992338D02*
X79542691Y-107087577D01*
X79542691Y-107087577D02*
X79399834Y-107135196D01*
X79399834Y-107135196D02*
X79161739Y-107135196D01*
X80685548Y-107135196D02*
X80114120Y-107135196D01*
X80399834Y-107135196D02*
X80399834Y-106135196D01*
X80399834Y-106135196D02*
X80304596Y-106278053D01*
X80304596Y-106278053D02*
X80209358Y-106373291D01*
X80209358Y-106373291D02*
X80114120Y-106420910D01*
X81304596Y-106135196D02*
X81399834Y-106135196D01*
X81399834Y-106135196D02*
X81495072Y-106182815D01*
X81495072Y-106182815D02*
X81542691Y-106230434D01*
X81542691Y-106230434D02*
X81590310Y-106325672D01*
X81590310Y-106325672D02*
X81637929Y-106516148D01*
X81637929Y-106516148D02*
X81637929Y-106754243D01*
X81637929Y-106754243D02*
X81590310Y-106944719D01*
X81590310Y-106944719D02*
X81542691Y-107039957D01*
X81542691Y-107039957D02*
X81495072Y-107087577D01*
X81495072Y-107087577D02*
X81399834Y-107135196D01*
X81399834Y-107135196D02*
X81304596Y-107135196D01*
X81304596Y-107135196D02*
X81209358Y-107087577D01*
X81209358Y-107087577D02*
X81161739Y-107039957D01*
X81161739Y-107039957D02*
X81114120Y-106944719D01*
X81114120Y-106944719D02*
X81066501Y-106754243D01*
X81066501Y-106754243D02*
X81066501Y-106516148D01*
X81066501Y-106516148D02*
X81114120Y-106325672D01*
X81114120Y-106325672D02*
X81161739Y-106230434D01*
X81161739Y-106230434D02*
X81209358Y-106182815D01*
X81209358Y-106182815D02*
X81304596Y-106135196D01*
X80964983Y-85512045D02*
X80964983Y-84512045D01*
X80964983Y-84512045D02*
X81203078Y-84512045D01*
X81203078Y-84512045D02*
X81345935Y-84559664D01*
X81345935Y-84559664D02*
X81441173Y-84654902D01*
X81441173Y-84654902D02*
X81488792Y-84750140D01*
X81488792Y-84750140D02*
X81536411Y-84940616D01*
X81536411Y-84940616D02*
X81536411Y-85083473D01*
X81536411Y-85083473D02*
X81488792Y-85273949D01*
X81488792Y-85273949D02*
X81441173Y-85369187D01*
X81441173Y-85369187D02*
X81345935Y-85464426D01*
X81345935Y-85464426D02*
X81203078Y-85512045D01*
X81203078Y-85512045D02*
X80964983Y-85512045D01*
X82012602Y-85512045D02*
X82203078Y-85512045D01*
X82203078Y-85512045D02*
X82298316Y-85464426D01*
X82298316Y-85464426D02*
X82345935Y-85416806D01*
X82345935Y-85416806D02*
X82441173Y-85273949D01*
X82441173Y-85273949D02*
X82488792Y-85083473D01*
X82488792Y-85083473D02*
X82488792Y-84702521D01*
X82488792Y-84702521D02*
X82441173Y-84607283D01*
X82441173Y-84607283D02*
X82393554Y-84559664D01*
X82393554Y-84559664D02*
X82298316Y-84512045D01*
X82298316Y-84512045D02*
X82107840Y-84512045D01*
X82107840Y-84512045D02*
X82012602Y-84559664D01*
X82012602Y-84559664D02*
X81964983Y-84607283D01*
X81964983Y-84607283D02*
X81917364Y-84702521D01*
X81917364Y-84702521D02*
X81917364Y-84940616D01*
X81917364Y-84940616D02*
X81964983Y-85035854D01*
X81964983Y-85035854D02*
X82012602Y-85083473D01*
X82012602Y-85083473D02*
X82107840Y-85131092D01*
X82107840Y-85131092D02*
X82298316Y-85131092D01*
X82298316Y-85131092D02*
X82393554Y-85083473D01*
X82393554Y-85083473D02*
X82441173Y-85035854D01*
X82441173Y-85035854D02*
X82488792Y-84940616D01*
X161993253Y-91952153D02*
X161993253Y-90952153D01*
X161993253Y-90952153D02*
X162231348Y-90952153D01*
X162231348Y-90952153D02*
X162374205Y-90999772D01*
X162374205Y-90999772D02*
X162469443Y-91095010D01*
X162469443Y-91095010D02*
X162517062Y-91190248D01*
X162517062Y-91190248D02*
X162564681Y-91380724D01*
X162564681Y-91380724D02*
X162564681Y-91523581D01*
X162564681Y-91523581D02*
X162517062Y-91714057D01*
X162517062Y-91714057D02*
X162469443Y-91809295D01*
X162469443Y-91809295D02*
X162374205Y-91904534D01*
X162374205Y-91904534D02*
X162231348Y-91952153D01*
X162231348Y-91952153D02*
X161993253Y-91952153D01*
X163136110Y-91380724D02*
X163040872Y-91333105D01*
X163040872Y-91333105D02*
X162993253Y-91285486D01*
X162993253Y-91285486D02*
X162945634Y-91190248D01*
X162945634Y-91190248D02*
X162945634Y-91142629D01*
X162945634Y-91142629D02*
X162993253Y-91047391D01*
X162993253Y-91047391D02*
X163040872Y-90999772D01*
X163040872Y-90999772D02*
X163136110Y-90952153D01*
X163136110Y-90952153D02*
X163326586Y-90952153D01*
X163326586Y-90952153D02*
X163421824Y-90999772D01*
X163421824Y-90999772D02*
X163469443Y-91047391D01*
X163469443Y-91047391D02*
X163517062Y-91142629D01*
X163517062Y-91142629D02*
X163517062Y-91190248D01*
X163517062Y-91190248D02*
X163469443Y-91285486D01*
X163469443Y-91285486D02*
X163421824Y-91333105D01*
X163421824Y-91333105D02*
X163326586Y-91380724D01*
X163326586Y-91380724D02*
X163136110Y-91380724D01*
X163136110Y-91380724D02*
X163040872Y-91428343D01*
X163040872Y-91428343D02*
X162993253Y-91475962D01*
X162993253Y-91475962D02*
X162945634Y-91571200D01*
X162945634Y-91571200D02*
X162945634Y-91761676D01*
X162945634Y-91761676D02*
X162993253Y-91856914D01*
X162993253Y-91856914D02*
X163040872Y-91904534D01*
X163040872Y-91904534D02*
X163136110Y-91952153D01*
X163136110Y-91952153D02*
X163326586Y-91952153D01*
X163326586Y-91952153D02*
X163421824Y-91904534D01*
X163421824Y-91904534D02*
X163469443Y-91856914D01*
X163469443Y-91856914D02*
X163517062Y-91761676D01*
X163517062Y-91761676D02*
X163517062Y-91571200D01*
X163517062Y-91571200D02*
X163469443Y-91475962D01*
X163469443Y-91475962D02*
X163421824Y-91428343D01*
X163421824Y-91428343D02*
X163326586Y-91380724D01*
X125151884Y-59275528D02*
X125151884Y-58275528D01*
X125151884Y-58275528D02*
X125389979Y-58275528D01*
X125389979Y-58275528D02*
X125532836Y-58323147D01*
X125532836Y-58323147D02*
X125628074Y-58418385D01*
X125628074Y-58418385D02*
X125675693Y-58513623D01*
X125675693Y-58513623D02*
X125723312Y-58704099D01*
X125723312Y-58704099D02*
X125723312Y-58846956D01*
X125723312Y-58846956D02*
X125675693Y-59037432D01*
X125675693Y-59037432D02*
X125628074Y-59132670D01*
X125628074Y-59132670D02*
X125532836Y-59227909D01*
X125532836Y-59227909D02*
X125389979Y-59275528D01*
X125389979Y-59275528D02*
X125151884Y-59275528D01*
X126056646Y-58275528D02*
X126723312Y-58275528D01*
X126723312Y-58275528D02*
X126294741Y-59275528D01*
X142790022Y-124699128D02*
X142790022Y-123699128D01*
X142790022Y-123699128D02*
X143028117Y-123699128D01*
X143028117Y-123699128D02*
X143170974Y-123746747D01*
X143170974Y-123746747D02*
X143266212Y-123841985D01*
X143266212Y-123841985D02*
X143313831Y-123937223D01*
X143313831Y-123937223D02*
X143361450Y-124127699D01*
X143361450Y-124127699D02*
X143361450Y-124270556D01*
X143361450Y-124270556D02*
X143313831Y-124461032D01*
X143313831Y-124461032D02*
X143266212Y-124556270D01*
X143266212Y-124556270D02*
X143170974Y-124651509D01*
X143170974Y-124651509D02*
X143028117Y-124699128D01*
X143028117Y-124699128D02*
X142790022Y-124699128D01*
X144218593Y-123699128D02*
X144028117Y-123699128D01*
X144028117Y-123699128D02*
X143932879Y-123746747D01*
X143932879Y-123746747D02*
X143885260Y-123794366D01*
X143885260Y-123794366D02*
X143790022Y-123937223D01*
X143790022Y-123937223D02*
X143742403Y-124127699D01*
X143742403Y-124127699D02*
X143742403Y-124508651D01*
X143742403Y-124508651D02*
X143790022Y-124603889D01*
X143790022Y-124603889D02*
X143837641Y-124651509D01*
X143837641Y-124651509D02*
X143932879Y-124699128D01*
X143932879Y-124699128D02*
X144123355Y-124699128D01*
X144123355Y-124699128D02*
X144218593Y-124651509D01*
X144218593Y-124651509D02*
X144266212Y-124603889D01*
X144266212Y-124603889D02*
X144313831Y-124508651D01*
X144313831Y-124508651D02*
X144313831Y-124270556D01*
X144313831Y-124270556D02*
X144266212Y-124175318D01*
X144266212Y-124175318D02*
X144218593Y-124127699D01*
X144218593Y-124127699D02*
X144123355Y-124080080D01*
X144123355Y-124080080D02*
X143932879Y-124080080D01*
X143932879Y-124080080D02*
X143837641Y-124127699D01*
X143837641Y-124127699D02*
X143790022Y-124175318D01*
X143790022Y-124175318D02*
X143742403Y-124270556D01*
X104539682Y-121576651D02*
X104539682Y-120576651D01*
X104539682Y-120576651D02*
X104777777Y-120576651D01*
X104777777Y-120576651D02*
X104920634Y-120624270D01*
X104920634Y-120624270D02*
X105015872Y-120719508D01*
X105015872Y-120719508D02*
X105063491Y-120814746D01*
X105063491Y-120814746D02*
X105111110Y-121005222D01*
X105111110Y-121005222D02*
X105111110Y-121148079D01*
X105111110Y-121148079D02*
X105063491Y-121338555D01*
X105063491Y-121338555D02*
X105015872Y-121433793D01*
X105015872Y-121433793D02*
X104920634Y-121529032D01*
X104920634Y-121529032D02*
X104777777Y-121576651D01*
X104777777Y-121576651D02*
X104539682Y-121576651D01*
X106015872Y-120576651D02*
X105539682Y-120576651D01*
X105539682Y-120576651D02*
X105492063Y-121052841D01*
X105492063Y-121052841D02*
X105539682Y-121005222D01*
X105539682Y-121005222D02*
X105634920Y-120957603D01*
X105634920Y-120957603D02*
X105873015Y-120957603D01*
X105873015Y-120957603D02*
X105968253Y-121005222D01*
X105968253Y-121005222D02*
X106015872Y-121052841D01*
X106015872Y-121052841D02*
X106063491Y-121148079D01*
X106063491Y-121148079D02*
X106063491Y-121386174D01*
X106063491Y-121386174D02*
X106015872Y-121481412D01*
X106015872Y-121481412D02*
X105968253Y-121529032D01*
X105968253Y-121529032D02*
X105873015Y-121576651D01*
X105873015Y-121576651D02*
X105634920Y-121576651D01*
X105634920Y-121576651D02*
X105539682Y-121529032D01*
X105539682Y-121529032D02*
X105492063Y-121481412D01*
X104302374Y-76769110D02*
X104302374Y-75769110D01*
X104302374Y-75769110D02*
X104540469Y-75769110D01*
X104540469Y-75769110D02*
X104683326Y-75816729D01*
X104683326Y-75816729D02*
X104778564Y-75911967D01*
X104778564Y-75911967D02*
X104826183Y-76007205D01*
X104826183Y-76007205D02*
X104873802Y-76197681D01*
X104873802Y-76197681D02*
X104873802Y-76340538D01*
X104873802Y-76340538D02*
X104826183Y-76531014D01*
X104826183Y-76531014D02*
X104778564Y-76626252D01*
X104778564Y-76626252D02*
X104683326Y-76721491D01*
X104683326Y-76721491D02*
X104540469Y-76769110D01*
X104540469Y-76769110D02*
X104302374Y-76769110D01*
X105730945Y-76102443D02*
X105730945Y-76769110D01*
X105492850Y-75721491D02*
X105254755Y-76435776D01*
X105254755Y-76435776D02*
X105873802Y-76435776D01*
X159807520Y-69375392D02*
X159807520Y-68375392D01*
X159807520Y-68375392D02*
X160045615Y-68375392D01*
X160045615Y-68375392D02*
X160188472Y-68423011D01*
X160188472Y-68423011D02*
X160283710Y-68518249D01*
X160283710Y-68518249D02*
X160331329Y-68613487D01*
X160331329Y-68613487D02*
X160378948Y-68803963D01*
X160378948Y-68803963D02*
X160378948Y-68946820D01*
X160378948Y-68946820D02*
X160331329Y-69137296D01*
X160331329Y-69137296D02*
X160283710Y-69232534D01*
X160283710Y-69232534D02*
X160188472Y-69327773D01*
X160188472Y-69327773D02*
X160045615Y-69375392D01*
X160045615Y-69375392D02*
X159807520Y-69375392D01*
X160712282Y-68375392D02*
X161331329Y-68375392D01*
X161331329Y-68375392D02*
X160997996Y-68756344D01*
X160997996Y-68756344D02*
X161140853Y-68756344D01*
X161140853Y-68756344D02*
X161236091Y-68803963D01*
X161236091Y-68803963D02*
X161283710Y-68851582D01*
X161283710Y-68851582D02*
X161331329Y-68946820D01*
X161331329Y-68946820D02*
X161331329Y-69184915D01*
X161331329Y-69184915D02*
X161283710Y-69280153D01*
X161283710Y-69280153D02*
X161236091Y-69327773D01*
X161236091Y-69327773D02*
X161140853Y-69375392D01*
X161140853Y-69375392D02*
X160855139Y-69375392D01*
X160855139Y-69375392D02*
X160759901Y-69327773D01*
X160759901Y-69327773D02*
X160712282Y-69280153D01*
X146332685Y-46525415D02*
X146332685Y-45525415D01*
X146332685Y-45525415D02*
X146570780Y-45525415D01*
X146570780Y-45525415D02*
X146713637Y-45573034D01*
X146713637Y-45573034D02*
X146808875Y-45668272D01*
X146808875Y-45668272D02*
X146856494Y-45763510D01*
X146856494Y-45763510D02*
X146904113Y-45953986D01*
X146904113Y-45953986D02*
X146904113Y-46096843D01*
X146904113Y-46096843D02*
X146856494Y-46287319D01*
X146856494Y-46287319D02*
X146808875Y-46382557D01*
X146808875Y-46382557D02*
X146713637Y-46477796D01*
X146713637Y-46477796D02*
X146570780Y-46525415D01*
X146570780Y-46525415D02*
X146332685Y-46525415D01*
X147285066Y-45620653D02*
X147332685Y-45573034D01*
X147332685Y-45573034D02*
X147427923Y-45525415D01*
X147427923Y-45525415D02*
X147666018Y-45525415D01*
X147666018Y-45525415D02*
X147761256Y-45573034D01*
X147761256Y-45573034D02*
X147808875Y-45620653D01*
X147808875Y-45620653D02*
X147856494Y-45715891D01*
X147856494Y-45715891D02*
X147856494Y-45811129D01*
X147856494Y-45811129D02*
X147808875Y-45953986D01*
X147808875Y-45953986D02*
X147237447Y-46525415D01*
X147237447Y-46525415D02*
X147856494Y-46525415D01*
X161645444Y-80879834D02*
X161597825Y-80927454D01*
X161597825Y-80927454D02*
X161454968Y-80975073D01*
X161454968Y-80975073D02*
X161359730Y-80975073D01*
X161359730Y-80975073D02*
X161216873Y-80927454D01*
X161216873Y-80927454D02*
X161121635Y-80832215D01*
X161121635Y-80832215D02*
X161074016Y-80736977D01*
X161074016Y-80736977D02*
X161026397Y-80546501D01*
X161026397Y-80546501D02*
X161026397Y-80403644D01*
X161026397Y-80403644D02*
X161074016Y-80213168D01*
X161074016Y-80213168D02*
X161121635Y-80117930D01*
X161121635Y-80117930D02*
X161216873Y-80022692D01*
X161216873Y-80022692D02*
X161359730Y-79975073D01*
X161359730Y-79975073D02*
X161454968Y-79975073D01*
X161454968Y-79975073D02*
X161597825Y-80022692D01*
X161597825Y-80022692D02*
X161645444Y-80070311D01*
X162502587Y-80308406D02*
X162502587Y-80975073D01*
X162264492Y-79927454D02*
X162026397Y-80641739D01*
X162026397Y-80641739D02*
X162645444Y-80641739D01*
X148276177Y-90768686D02*
X148228558Y-90816306D01*
X148228558Y-90816306D02*
X148085701Y-90863925D01*
X148085701Y-90863925D02*
X147990463Y-90863925D01*
X147990463Y-90863925D02*
X147847606Y-90816306D01*
X147847606Y-90816306D02*
X147752368Y-90721067D01*
X147752368Y-90721067D02*
X147704749Y-90625829D01*
X147704749Y-90625829D02*
X147657130Y-90435353D01*
X147657130Y-90435353D02*
X147657130Y-90292496D01*
X147657130Y-90292496D02*
X147704749Y-90102020D01*
X147704749Y-90102020D02*
X147752368Y-90006782D01*
X147752368Y-90006782D02*
X147847606Y-89911544D01*
X147847606Y-89911544D02*
X147990463Y-89863925D01*
X147990463Y-89863925D02*
X148085701Y-89863925D01*
X148085701Y-89863925D02*
X148228558Y-89911544D01*
X148228558Y-89911544D02*
X148276177Y-89959163D01*
X148609511Y-89863925D02*
X149228558Y-89863925D01*
X149228558Y-89863925D02*
X148895225Y-90244877D01*
X148895225Y-90244877D02*
X149038082Y-90244877D01*
X149038082Y-90244877D02*
X149133320Y-90292496D01*
X149133320Y-90292496D02*
X149180939Y-90340115D01*
X149180939Y-90340115D02*
X149228558Y-90435353D01*
X149228558Y-90435353D02*
X149228558Y-90673448D01*
X149228558Y-90673448D02*
X149180939Y-90768686D01*
X149180939Y-90768686D02*
X149133320Y-90816306D01*
X149133320Y-90816306D02*
X149038082Y-90863925D01*
X149038082Y-90863925D02*
X148752368Y-90863925D01*
X148752368Y-90863925D02*
X148657130Y-90816306D01*
X148657130Y-90816306D02*
X148609511Y-90768686D01*
D12*
%TO.C,U2*%
X118749595Y-107263942D02*
X117886733Y-107263942D01*
X121289595Y-107263942D02*
X120426733Y-107263942D01*
X123829595Y-107263942D02*
X122966733Y-107263942D01*
X126369595Y-107263942D02*
X125506733Y-107263942D01*
X128909595Y-107263942D02*
X128046733Y-107263942D01*
X131449595Y-107263942D02*
X130586733Y-107263942D01*
X133126733Y-113867942D02*
X133989595Y-113867942D01*
X130586733Y-113867942D02*
X131449595Y-113867942D01*
X128046733Y-113867942D02*
X128909595Y-113867942D01*
X125506733Y-113867942D02*
X126369595Y-113867942D01*
X122966733Y-113867942D02*
X123829595Y-113867942D01*
X120426733Y-113867942D02*
X121289595Y-113867942D01*
X116095664Y-110261142D02*
G75*
G02*
X116095664Y-110870742I0J-304800D01*
G01*
X118028604Y-113867942D02*
X118749595Y-113867942D01*
X116095664Y-107263942D02*
X116095664Y-113594777D01*
X133989595Y-107263942D02*
X133126733Y-107263942D01*
X135780664Y-113867942D02*
X135780664Y-107263942D01*
D13*
%TO.C,U1*%
X140513523Y-81119675D02*
X150793523Y-81119675D01*
X150793523Y-81119675D02*
X150793523Y-75819675D01*
X140513523Y-79469675D02*
X140513523Y-81119675D01*
X140513523Y-75819675D02*
X140513523Y-77469675D01*
X150793523Y-75819675D02*
X140513523Y-75819675D01*
X140513523Y-77469675D02*
G75*
G02*
X140513523Y-79469675I0J-1000000D01*
G01*
%TO.C,RV2*%
X122409013Y-75454331D02*
X122409013Y-80674331D01*
X122409013Y-75454331D02*
X124529013Y-75454331D01*
X122409013Y-80674331D02*
X132329013Y-80674331D01*
X125229013Y-75454331D02*
X132329013Y-75454331D01*
X132329013Y-75454331D02*
X132329013Y-80674331D01*
X124829013Y-75454331D02*
X124589013Y-75124331D01*
X125069013Y-75124331D01*
X124829013Y-75454331D01*
G36*
X124829013Y-75454331D02*
G01*
X124589013Y-75124331D01*
X125069013Y-75124331D01*
X124829013Y-75454331D01*
G37*
%TO.C,R3*%
X116514961Y-87583969D02*
X123054961Y-87583969D01*
X116514961Y-87913969D02*
X116514961Y-87583969D01*
X116514961Y-89993969D02*
X116514961Y-90323969D01*
X116514961Y-90323969D02*
X123054961Y-90323969D01*
X123054961Y-87583969D02*
X123054961Y-87913969D01*
X123054961Y-90323969D02*
X123054961Y-89993969D01*
%TO.C,R2*%
X130449013Y-91565127D02*
X136989013Y-91565127D01*
X130449013Y-91895127D02*
X130449013Y-91565127D01*
X130449013Y-93975127D02*
X130449013Y-94305127D01*
X130449013Y-94305127D02*
X136989013Y-94305127D01*
X136989013Y-91565127D02*
X136989013Y-91895127D01*
X136989013Y-94305127D02*
X136989013Y-93975127D01*
%TO.C,J2*%
X144887110Y-108862705D02*
X144887110Y-107532705D01*
X146217110Y-108862705D02*
X144887110Y-108862705D01*
X147487110Y-108862705D02*
X150087110Y-108862705D01*
X147487110Y-108862705D02*
X147487110Y-106202705D01*
X150087110Y-108862705D02*
X150087110Y-106202705D01*
X147487110Y-106202705D02*
X150087110Y-106202705D01*
%TO.C,D11*%
X157190191Y-117225374D02*
X157190191Y-117381374D01*
X157190191Y-119541374D02*
X157190191Y-119697374D01*
X157190191Y-117225858D02*
G75*
G02*
X160421588Y-117381313I1560000J-1235516D01*
G01*
X157709230Y-117381374D02*
G75*
G02*
X159791101Y-117381325I1040961J-1080000D01*
G01*
X159791101Y-119541423D02*
G75*
G02*
X157709230Y-119541374I-1040910J1080049D01*
G01*
X160421588Y-119541435D02*
G75*
G02*
X157190191Y-119696890I-1671397J1080061D01*
G01*
%TO.C,D10*%
X78816025Y-108404377D02*
X78816025Y-108560377D01*
X78816025Y-110720377D02*
X78816025Y-110876377D01*
X78816025Y-108404861D02*
G75*
G02*
X82047422Y-108560316I1560000J-1235516D01*
G01*
X79335064Y-108560377D02*
G75*
G02*
X81416935Y-108560328I1040961J-1080000D01*
G01*
X81416935Y-110720426D02*
G75*
G02*
X79335064Y-110720377I-1040910J1080049D01*
G01*
X82047422Y-110720438D02*
G75*
G02*
X78816025Y-110875893I-1671397J1080061D01*
G01*
%TO.C,D9*%
X80143078Y-86781226D02*
X80143078Y-86937226D01*
X80143078Y-89097226D02*
X80143078Y-89253226D01*
X80143078Y-86781710D02*
G75*
G02*
X83374475Y-86937165I1560000J-1235516D01*
G01*
X80662117Y-86937226D02*
G75*
G02*
X82743988Y-86937177I1040961J-1080000D01*
G01*
X82743988Y-89097275D02*
G75*
G02*
X80662117Y-89097226I-1040910J1080049D01*
G01*
X83374475Y-89097287D02*
G75*
G02*
X80143078Y-89252742I-1671397J1080061D01*
G01*
%TO.C,D8*%
X161171348Y-93221334D02*
X161171348Y-93377334D01*
X161171348Y-95537334D02*
X161171348Y-95693334D01*
X161171348Y-93221818D02*
G75*
G02*
X164402745Y-93377273I1560000J-1235516D01*
G01*
X161690387Y-93377334D02*
G75*
G02*
X163772258Y-93377285I1040961J-1080000D01*
G01*
X163772258Y-95537383D02*
G75*
G02*
X161690387Y-95537334I-1040910J1080049D01*
G01*
X164402745Y-95537395D02*
G75*
G02*
X161171348Y-95692850I-1671397J1080061D01*
G01*
%TO.C,D7*%
X124329979Y-60544709D02*
X124329979Y-60700709D01*
X124329979Y-62860709D02*
X124329979Y-63016709D01*
X124329979Y-60545193D02*
G75*
G02*
X127561376Y-60700648I1560000J-1235516D01*
G01*
X124849018Y-60700709D02*
G75*
G02*
X126930889Y-60700660I1040961J-1080000D01*
G01*
X126930889Y-62860758D02*
G75*
G02*
X124849018Y-62860709I-1040910J1080049D01*
G01*
X127561376Y-62860770D02*
G75*
G02*
X124329979Y-63016225I-1671397J1080061D01*
G01*
%TO.C,D6*%
X141968117Y-125968309D02*
X141968117Y-126124309D01*
X141968117Y-128284309D02*
X141968117Y-128440309D01*
X141968117Y-125968793D02*
G75*
G02*
X145199514Y-126124248I1560000J-1235516D01*
G01*
X142487156Y-126124309D02*
G75*
G02*
X144569027Y-126124260I1040961J-1080000D01*
G01*
X144569027Y-128284358D02*
G75*
G02*
X142487156Y-128284309I-1040910J1080049D01*
G01*
X145199514Y-128284370D02*
G75*
G02*
X141968117Y-128439825I-1671397J1080061D01*
G01*
%TO.C,D5*%
X103717777Y-122845832D02*
X103717777Y-123001832D01*
X103717777Y-125161832D02*
X103717777Y-125317832D01*
X103717777Y-122846316D02*
G75*
G02*
X106949174Y-123001771I1560000J-1235516D01*
G01*
X104236816Y-123001832D02*
G75*
G02*
X106318687Y-123001783I1040961J-1080000D01*
G01*
X106318687Y-125161881D02*
G75*
G02*
X104236816Y-125161832I-1040910J1080049D01*
G01*
X106949174Y-125161893D02*
G75*
G02*
X103717777Y-125317348I-1671397J1080061D01*
G01*
%TO.C,D4*%
X103480469Y-78038291D02*
X103480469Y-78194291D01*
X103480469Y-80354291D02*
X103480469Y-80510291D01*
X103480469Y-78038775D02*
G75*
G02*
X106711866Y-78194230I1560000J-1235516D01*
G01*
X103999508Y-78194291D02*
G75*
G02*
X106081379Y-78194242I1040961J-1080000D01*
G01*
X106081379Y-80354340D02*
G75*
G02*
X103999508Y-80354291I-1040910J1080049D01*
G01*
X106711866Y-80354352D02*
G75*
G02*
X103480469Y-80509807I-1671397J1080061D01*
G01*
%TO.C,D3*%
X158985615Y-70644573D02*
X158985615Y-70800573D01*
X158985615Y-72960573D02*
X158985615Y-73116573D01*
X158985615Y-70645057D02*
G75*
G02*
X162217012Y-70800512I1560000J-1235516D01*
G01*
X159504654Y-70800573D02*
G75*
G02*
X161586525Y-70800524I1040961J-1080000D01*
G01*
X161586525Y-72960622D02*
G75*
G02*
X159504654Y-72960573I-1040910J1080049D01*
G01*
X162217012Y-72960634D02*
G75*
G02*
X158985615Y-73116089I-1671397J1080061D01*
G01*
%TO.C,D2*%
X145510780Y-47794596D02*
X145510780Y-47950596D01*
X145510780Y-50110596D02*
X145510780Y-50266596D01*
X145510780Y-47795080D02*
G75*
G02*
X148742177Y-47950535I1560000J-1235516D01*
G01*
X146029819Y-47950596D02*
G75*
G02*
X148111690Y-47950547I1040961J-1080000D01*
G01*
X148111690Y-50110645D02*
G75*
G02*
X146029819Y-50110596I-1040910J1080049D01*
G01*
X148742177Y-50110657D02*
G75*
G02*
X145510780Y-50266112I-1671397J1080061D01*
G01*
%TO.C,C4*%
X159007336Y-82795254D02*
X159507336Y-82795254D01*
X159257336Y-82545254D02*
X159257336Y-83045254D01*
X161812111Y-81690254D02*
X161812111Y-83230254D01*
X161812111Y-85310254D02*
X161812111Y-86850254D01*
X161852111Y-81690254D02*
X161852111Y-83230254D01*
X161852111Y-85310254D02*
X161852111Y-86850254D01*
X161892111Y-81691254D02*
X161892111Y-83230254D01*
X161892111Y-85310254D02*
X161892111Y-86849254D01*
X161932111Y-81692254D02*
X161932111Y-83230254D01*
X161932111Y-85310254D02*
X161932111Y-86848254D01*
X161972111Y-81694254D02*
X161972111Y-83230254D01*
X161972111Y-85310254D02*
X161972111Y-86846254D01*
X162012111Y-81697254D02*
X162012111Y-83230254D01*
X162012111Y-85310254D02*
X162012111Y-86843254D01*
X162052111Y-81701254D02*
X162052111Y-83230254D01*
X162052111Y-85310254D02*
X162052111Y-86839254D01*
X162092111Y-81705254D02*
X162092111Y-83230254D01*
X162092111Y-85310254D02*
X162092111Y-86835254D01*
X162132111Y-81709254D02*
X162132111Y-83230254D01*
X162132111Y-85310254D02*
X162132111Y-86831254D01*
X162172111Y-81714254D02*
X162172111Y-83230254D01*
X162172111Y-85310254D02*
X162172111Y-86826254D01*
X162212111Y-81720254D02*
X162212111Y-83230254D01*
X162212111Y-85310254D02*
X162212111Y-86820254D01*
X162252111Y-81727254D02*
X162252111Y-83230254D01*
X162252111Y-85310254D02*
X162252111Y-86813254D01*
X162292111Y-81734254D02*
X162292111Y-83230254D01*
X162292111Y-85310254D02*
X162292111Y-86806254D01*
X162332111Y-81742254D02*
X162332111Y-83230254D01*
X162332111Y-85310254D02*
X162332111Y-86798254D01*
X162372111Y-81750254D02*
X162372111Y-83230254D01*
X162372111Y-85310254D02*
X162372111Y-86790254D01*
X162412111Y-81759254D02*
X162412111Y-83230254D01*
X162412111Y-85310254D02*
X162412111Y-86781254D01*
X162452111Y-81769254D02*
X162452111Y-83230254D01*
X162452111Y-85310254D02*
X162452111Y-86771254D01*
X162492111Y-81779254D02*
X162492111Y-83230254D01*
X162492111Y-85310254D02*
X162492111Y-86761254D01*
X162533111Y-81790254D02*
X162533111Y-83230254D01*
X162533111Y-85310254D02*
X162533111Y-86750254D01*
X162573111Y-81802254D02*
X162573111Y-83230254D01*
X162573111Y-85310254D02*
X162573111Y-86738254D01*
X162613111Y-81815254D02*
X162613111Y-83230254D01*
X162613111Y-85310254D02*
X162613111Y-86725254D01*
X162653111Y-81828254D02*
X162653111Y-83230254D01*
X162653111Y-85310254D02*
X162653111Y-86712254D01*
X162693111Y-81842254D02*
X162693111Y-83230254D01*
X162693111Y-85310254D02*
X162693111Y-86698254D01*
X162733111Y-81856254D02*
X162733111Y-83230254D01*
X162733111Y-85310254D02*
X162733111Y-86684254D01*
X162773111Y-81872254D02*
X162773111Y-83230254D01*
X162773111Y-85310254D02*
X162773111Y-86668254D01*
X162813111Y-81888254D02*
X162813111Y-83230254D01*
X162813111Y-85310254D02*
X162813111Y-86652254D01*
X162853111Y-81905254D02*
X162853111Y-83230254D01*
X162853111Y-85310254D02*
X162853111Y-86635254D01*
X162893111Y-81922254D02*
X162893111Y-83230254D01*
X162893111Y-85310254D02*
X162893111Y-86618254D01*
X162933111Y-81941254D02*
X162933111Y-83230254D01*
X162933111Y-85310254D02*
X162933111Y-86599254D01*
X162973111Y-81960254D02*
X162973111Y-83230254D01*
X162973111Y-85310254D02*
X162973111Y-86580254D01*
X163013111Y-81980254D02*
X163013111Y-83230254D01*
X163013111Y-85310254D02*
X163013111Y-86560254D01*
X163053111Y-82002254D02*
X163053111Y-83230254D01*
X163053111Y-85310254D02*
X163053111Y-86538254D01*
X163093111Y-82023254D02*
X163093111Y-83230254D01*
X163093111Y-85310254D02*
X163093111Y-86517254D01*
X163133111Y-82046254D02*
X163133111Y-83230254D01*
X163133111Y-85310254D02*
X163133111Y-86494254D01*
X163173111Y-82070254D02*
X163173111Y-83230254D01*
X163173111Y-85310254D02*
X163173111Y-86470254D01*
X163213111Y-82095254D02*
X163213111Y-83230254D01*
X163213111Y-85310254D02*
X163213111Y-86445254D01*
X163253111Y-82121254D02*
X163253111Y-83230254D01*
X163253111Y-85310254D02*
X163253111Y-86419254D01*
X163293111Y-82148254D02*
X163293111Y-83230254D01*
X163293111Y-85310254D02*
X163293111Y-86392254D01*
X163333111Y-82175254D02*
X163333111Y-83230254D01*
X163333111Y-85310254D02*
X163333111Y-86365254D01*
X163373111Y-82205254D02*
X163373111Y-83230254D01*
X163373111Y-85310254D02*
X163373111Y-86335254D01*
X163413111Y-82235254D02*
X163413111Y-83230254D01*
X163413111Y-85310254D02*
X163413111Y-86305254D01*
X163453111Y-82266254D02*
X163453111Y-83230254D01*
X163453111Y-85310254D02*
X163453111Y-86274254D01*
X163493111Y-82299254D02*
X163493111Y-83230254D01*
X163493111Y-85310254D02*
X163493111Y-86241254D01*
X163533111Y-82333254D02*
X163533111Y-83230254D01*
X163533111Y-85310254D02*
X163533111Y-86207254D01*
X163573111Y-82369254D02*
X163573111Y-83230254D01*
X163573111Y-85310254D02*
X163573111Y-86171254D01*
X163613111Y-82406254D02*
X163613111Y-83230254D01*
X163613111Y-85310254D02*
X163613111Y-86134254D01*
X163653111Y-82444254D02*
X163653111Y-83230254D01*
X163653111Y-85310254D02*
X163653111Y-86096254D01*
X163693111Y-82485254D02*
X163693111Y-83230254D01*
X163693111Y-85310254D02*
X163693111Y-86055254D01*
X163733111Y-82527254D02*
X163733111Y-83230254D01*
X163733111Y-85310254D02*
X163733111Y-86013254D01*
X163773111Y-82571254D02*
X163773111Y-83230254D01*
X163773111Y-85310254D02*
X163773111Y-85969254D01*
X163813111Y-82617254D02*
X163813111Y-83230254D01*
X163813111Y-85310254D02*
X163813111Y-85923254D01*
X163853111Y-82665254D02*
X163853111Y-85875254D01*
X163893111Y-82716254D02*
X163893111Y-85824254D01*
X163933111Y-82770254D02*
X163933111Y-85770254D01*
X163973111Y-82827254D02*
X163973111Y-85713254D01*
X164013111Y-82887254D02*
X164013111Y-85653254D01*
X164053111Y-82951254D02*
X164053111Y-85589254D01*
X164093111Y-83019254D02*
X164093111Y-85521254D01*
X164133111Y-83092254D02*
X164133111Y-85448254D01*
X164173111Y-83172254D02*
X164173111Y-85368254D01*
X164213111Y-83259254D02*
X164213111Y-85281254D01*
X164253111Y-83355254D02*
X164253111Y-85185254D01*
X164293111Y-83465254D02*
X164293111Y-85075254D01*
X164333111Y-83593254D02*
X164333111Y-84947254D01*
X164373111Y-83752254D02*
X164373111Y-84788254D01*
X164413111Y-83986254D02*
X164413111Y-84554254D01*
X164432111Y-84270254D02*
G75*
G02*
X159192111Y-84270254I-2620000J0D01*
G01*
X159192111Y-84270254D02*
G75*
G02*
X164432111Y-84270254I2620000J0D01*
G01*
%TO.C,C3*%
X144572844Y-91539106D02*
X144572844Y-94279106D01*
X144572844Y-91539106D02*
X152312844Y-91539106D01*
X144572844Y-94279106D02*
X152312844Y-94279106D01*
X152312844Y-91539106D02*
X152312844Y-94279106D01*
%TD*%
M02*
