%TF.GenerationSoftware,KiCad,Pcbnew,8.0.8*%
%TF.CreationDate,2026-04-08T15:11:11-04:00*%
%TF.ProjectId,cupsyboard,63757073-7962-46f6-9172-642e6b696361,rev?*%
%TF.SameCoordinates,Original*%
%TF.FileFunction,Profile,NP*%
%FSLAX46Y46*%
G04 Gerber Fmt 4.6, Leading zero omitted, Abs format (unit mm)*
G04 Created by KiCad (PCBNEW 8.0.8) date 2026-04-08 15:11:11*
%MOMM*%
%LPD*%
G01*
G04 APERTURE LIST*
%TA.AperFunction,Profile*%
%ADD10C,0.050000*%
%TD*%
G04 APERTURE END LIST*
D10*
X140790938Y-32945985D02*
X140895021Y-34090893D01*
X142144012Y-35235801D01*
X144069539Y-37317452D01*
X145370571Y-39190938D01*
X146879768Y-40804218D01*
X149898162Y-43978736D01*
X153176763Y-46164470D01*
X154946166Y-47517543D01*
X158887812Y-52083684D01*
X159928638Y-53749005D01*
X160830687Y-55136773D01*
X162391925Y-59161298D01*
X163432751Y-59334769D01*
X164126634Y-63949096D01*
X163432751Y-67387676D01*
X164265411Y-78524510D01*
X165063377Y-80363302D01*
X167079496Y-87440916D01*
X170149932Y-94518530D01*
X169473395Y-95351190D01*
X169889725Y-96600181D01*
X169168856Y-98685688D01*
X169492668Y-100096585D01*
X168798785Y-100651692D01*
X168220548Y-101091151D01*
X164265411Y-102386401D01*
X164450447Y-103057155D01*
X164450447Y-103982334D01*
X163872210Y-106133373D01*
X163455880Y-107174199D01*
X162276278Y-108168765D01*
X161119805Y-109117073D01*
X159708908Y-109834086D01*
X159454484Y-110273546D01*
X157809904Y-111699864D01*
X159787472Y-112480483D01*
X162077288Y-113157019D01*
X163326279Y-114041721D01*
X164731394Y-114978464D01*
X165668137Y-117112157D01*
X165355889Y-122576491D01*
X164679352Y-122888739D01*
X160359926Y-125022431D01*
X158278275Y-125126513D01*
X155676211Y-125386720D01*
X153802725Y-124085688D01*
X152241487Y-123721399D01*
X152137404Y-126115298D01*
X151408826Y-127468371D01*
X148442473Y-129914311D01*
X143134263Y-130799013D01*
X139231167Y-130486765D01*
X137774011Y-128977568D01*
X136056649Y-127208165D01*
X134963782Y-125594885D01*
X135223989Y-123565275D01*
X134703576Y-122108119D01*
X134755617Y-119245849D01*
X131893347Y-118829519D01*
X130748439Y-120650964D01*
X129499448Y-122004037D01*
X122161628Y-123148945D01*
X120756513Y-125438761D01*
X119819770Y-126479587D01*
X116176881Y-128040825D01*
X112690115Y-128040825D01*
X103895139Y-128092866D01*
X96135665Y-127156123D01*
X84582501Y-120650964D01*
X83281469Y-119714221D01*
X81199818Y-116435620D01*
X76464062Y-110971286D01*
X74538535Y-105350828D01*
X74850782Y-104986539D01*
X72713234Y-101600000D01*
X73910183Y-95198922D01*
X75575504Y-87028442D01*
X81195962Y-82709015D01*
X85723553Y-82500850D01*
X89782773Y-82813098D01*
X92957291Y-84114130D01*
X95559355Y-88017226D01*
X99306327Y-89682547D01*
X102220639Y-93377478D01*
X107476808Y-97696904D01*
X109454376Y-101235711D01*
X110859491Y-100403050D01*
X109870707Y-99049977D01*
X107268643Y-92232569D01*
X104822703Y-87913143D01*
X103261464Y-84582501D01*
X102064515Y-82188603D01*
X100428107Y-79407284D01*
X99225375Y-77356472D01*
X99237939Y-77346764D01*
X99234510Y-77370928D01*
X99702882Y-75185195D01*
X100171253Y-74482637D01*
X100639625Y-71204037D01*
X99780944Y-66051950D01*
X100327377Y-63241721D01*
X103684039Y-55123282D01*
X104933030Y-54264601D01*
X104698844Y-50595690D01*
X104933030Y-46692595D01*
X106572330Y-44350737D01*
X107431012Y-42945623D01*
X108716164Y-41883594D01*
X110763121Y-39871331D01*
X117459098Y-41814205D01*
X119228502Y-42855031D01*
X120408104Y-43306055D01*
X122593838Y-42785643D01*
X125577538Y-41397875D01*
X127763272Y-38171316D01*
X130226559Y-34871512D01*
X132620458Y-33414356D01*
X136627636Y-32269448D01*
X138032751Y-32113324D01*
X140790938Y-32945985D01*
M02*
